<?xml version="1.0" encoding="UTF-8"?>
<svg width="66px" height="58px" viewBox="0 0 66 58" version="1.1" xmlns="http://www.w3.org/2000/svg" xmlns:xlink="http://www.w3.org/1999/xlink">
    <title>Group 14</title>
    <defs>
        <polygon id="path-1" points="0.086632 0.121426357 38.913342 0.121426357 38.913342 16.0000124 0.086632 16.0000124"></polygon>
    </defs>
    <g id="Desktop" stroke="none" stroke-width="1" fill="none" fill-rule="evenodd">
        <g id="HomePage" transform="translate(-720.000000, -673.000000)">
            <g id="Hero" transform="translate(-10.000000, 0.000000)">
                <g id="Group-14" transform="translate(730.000000, 673.000000)">
                    <g id="Group-3" transform="translate(14.000000, 0.000000)">
                        <mask id="mask-2" fill="white">
                            <use xlink:href="#path-1"></use>
                        </mask>
                        <g id="Clip-2"></g>
                        <path d="M8.306792,8.06202791 L19.500052,11.9066171 L30.693182,8.06202791 L19.500052,4.21731473 L8.306792,8.06202791 Z M19.500052,16.0000124 C19.261502,16.0000124 19.022952,15.9603225 18.795582,15.8835473 L1.462292,9.93005891 C0.635752,9.64689612 0.086632,8.89812093 0.086632,8.06202791 C0.086632,7.22581085 0.635752,6.47703566 1.462292,6.19387287 L18.795582,0.240384496 C19.250452,0.0817488372 19.749522,0.0817488372 20.204522,0.240384496 L37.537812,6.19387287 C38.364222,6.47703566 38.913342,7.22581085 38.913342,8.06202791 C38.913342,8.89812093 38.364222,9.64689612 37.537812,9.93005891 L20.204522,15.8835473 C19.977022,15.9603225 19.738602,16.0000124 19.500052,16.0000124 L19.500052,16.0000124 Z" id="Fill-1" fill="#375CA5" mask="url(#mask-2)"></path>
                    </g>
                    <path d="M33.5,38 C33.2605151,38 33.0208996,37.959149 32.792514,37.8802555 L15.3816738,31.7526041 C14.5515727,31.46103 14,30.6903501 14,29.8297981 L14,8.04255048 C14,6.91506261 14.9358715,6 16.0892904,6 C17.2425787,6 18.1785808,6.91506261 18.1785808,8.04255048 L18.1785808,28.3945234 L33.5,33.7868567 L48.8214192,28.3945234 L48.8214192,8.04255048 C48.8214192,6.91506261 49.7574213,6 50.9107096,6 C52.0639979,6 53,6.91506261 53,8.04255048 L53,29.8297981 C53,30.6903501 52.4484273,31.46103 51.6183262,31.7526041 L34.2076165,37.8802555 C33.9791004,37.959149 33.7396155,38 33.5,38" id="Fill-4" fill="#375CA5"></path>
                    <path d="M29.1459892,58 C28.4945908,58 27.8517635,57.6994615 27.4289706,57.1333277 C26.717575,56.1740153 26.9117624,54.8159713 27.8575221,54.099365 L31.2859346,51.4989417 L27.8575221,48.8986538 C26.9117624,48.179068 26.7203874,46.8211594 27.4289706,45.8646912 C28.1431785,44.9083585 29.4832057,44.7176607 30.4288315,45.4312873 L36.142763,49.7653262 C36.6799256,50.17557 37,50.8171432 37,51.4989417 C37,52.1808756 36.6827379,52.8223134 36.142763,53.2326927 L30.4288315,57.5667316 C30.0459474,57.8584665 29.5944952,58 29.1459892,58" id="Fill-6" fill="#375CA5"></path>
                    <path d="M32.9411765,54 C28.8455331,54 24.9749449,53.7967717 21.4337684,53.3960044 C14.9991728,52.7128873 0,50.3757616 0,43.4151915 C0,40.4063274 2.78623162,37.9449625 8.28200368,36.0961933 C9.56670956,35.6700225 10.9941176,36.7171247 10.9941176,38.1087624 C10.9941176,39.1135253 10.3215257,39.954753 9.41023897,40.1720062 C5.02082721,41.6737259 4.11764706,43.110349 4.11764706,43.4151915 C4.11764706,44.4145297 8.48788603,47.7676648 21.870239,49.1845737 C25.2768199,49.5713161 28.9964706,49.7660766 32.9411765,49.7660766 C34.0776471,49.7660766 35,50.7144754 35,51.8830383 C35,53.0516012 34.0776471,54 32.9411765,54" id="Fill-8" fill="#375CA5"></path>
                    <path d="M42.087387,53 C41.0125602,53 40.0992054,52.1924485 40.0071781,51.1230023 C39.91254,49.9963945 40.7646738,49.0087904 41.9148195,48.9132653 C56.0918561,47.7539207 61.8201323,44.3847112 61.8201323,43.1762613 C61.8201323,42.8078439 60.8037852,41.4328964 56.2868757,39.9924753 C55.1895968,39.6433675 54.5909623,38.4865804 54.947454,37.4117633 C55.3066869,36.3396317 56.4817647,35.7530539 57.5817849,36.0996041 C63.1679083,37.8863197 66,40.268053 66,43.1788188 C66,50.2828419 49.4000995,52.4079235 42.2655676,52.9945012 C42.2043466,52.9973146 42.1458668,53 42.087387,53" id="Fill-10" fill="#375CA5"></path>
                    <path d="M33,39 C31.896,39 31,38.0804226 31,36.9473718 L31,15.0526282 C31,13.9195774 31.896,13 33,13 C34.104,13 35,13.9195774 35,15.0526282 L35,36.9473718 C35,38.0804226 34.104,39 33,39" id="Fill-12" fill="#375CA5"></path>
                </g>
            </g>
        </g>
    </g>
</svg>